<svg xmlns="http://www.w3.org/2000/svg" xmlns:xlink="http://www.w3.org/1999/xlink" version="1.1" width="256" height="256" viewBox="0 0 256 256" xml:space="preserve">
<g style="stroke: none; stroke-width: 0; stroke-dasharray: none; stroke-linecap: butt; stroke-linejoin: miter; stroke-miterlimit: 10; fill: none; fill-rule: nonzero; opacity: 1;" transform="translate(1.4065934065934016 1.4065934065934016) scale(2.81 2.81)">
	<linearGradient id="SVGID_3" gradientUnits="userSpaceOnUse" gradientTransform="matrix(1 0 0 -1 0 92)" x1="47.9395" y1="42.1113" x2="-0.6548" y2="42.1113">
<stop offset="0%" style="stop-color:rgb(24,122,144);stop-opacity: 1"/>
<stop offset="51.870000000000005%" style="stop-color:rgb(80,230,255);stop-opacity: 1"/>
</linearGradient>
<path d="M 50.164 58.555 l -4.891 10.858 c -1.898 2.446 -4.363 4.422 -7.161 5.732 c -2.798 1.37 -5.85 2.113 -8.961 2.191 C 16.239 77.591 10.233 65.97 10.233 65.97 C 2.935 53.938 0.764 38.071 0.255 32.965 c -0.137 -0.587 -0.235 -1.193 -0.254 -1.8 c -0.02 -1.565 0.411 -3.13 1.291 -4.461 c 0.743 -1.37 1.878 -2.485 3.248 -3.248 c 1.467 -0.704 3.091 -1.056 4.735 -1.017 c 1.526 0.059 3.032 0.489 4.343 1.272 c 0.998 0.607 1.859 1.389 2.563 2.309 c 1.056 1.78 1.604 3.815 1.624 5.889 c 0.509 4.539 1.409 9.019 2.68 13.421 c 0.978 3.502 2.348 6.887 4.089 10.095 c 0.646 1.467 1.663 2.739 2.935 3.698 l 0.783 0.391 c 2.054 0.391 3.189 -1.291 3.972 -2.68 c 1.017 -2.426 1.917 -4.891 2.68 -7.415 c 0.117 -0.509 0.254 -0.9 0.391 -1.409 c 0.254 -0.88 0.47 -1.78 0.626 -2.68 l 4.109 -11.015 L 50.164 58.555 z" style="stroke: none; stroke-width: 1; stroke-dasharray: none; stroke-linecap: butt; stroke-linejoin: miter; stroke-miterlimit: 10; fill: url(#SVGID_3); fill-rule: nonzero; opacity: 1;" transform=" matrix(1 0 0 1 0 0) " stroke-linecap="round"/>
	<radialGradient id="SVGID_4" gradientUnits="userSpaceOnUse" gradientTransform="matrix(1.9564 0 0 -2.202 12.8551 170.5264)" cx="18.8327" cy="58.2735" r="21.814" fx="18.8327" fy="58.2735">
<stop offset="0%" style="stop-color:rgb(21,56,47);stop-opacity: 1"/>
<stop offset="66.10000000000001%" style="stop-color:rgb(48,220,128);stop-opacity: 1"/>
<stop offset="100%" style="stop-color:rgb(89,227,104);stop-opacity: 1"/>
</radialGradient>
<path d="M 61.149 12.659 c -3.138 0.022 -6.235 0.72 -9.078 2.046 c -2.827 1.413 -5.28 3.471 -7.163 6.008 l -5.75 15.462 l 11.255 21.617 l 3.833 -12.279 l 0.374 -1.917 c 0.755 -3.236 1.782 -6.403 3.07 -9.469 c 0.407 -1.264 1.162 -2.391 2.176 -3.248 l 0.129 -0.129 c 0.925 -0.456 2.035 -0.307 2.809 0.374 c 0.479 0.333 0.875 0.771 1.152 1.283 c 0.389 0.503 0.634 1.023 1.023 1.526 c 0.62 1.041 1.162 2.127 1.624 3.248 c 0.427 0.91 0.931 1.778 1.51 2.598 c 0.072 0 0.129 0.059 0.129 0.129 c 0.875 0.945 1.915 1.72 3.07 2.289 c 1.135 0.614 2.412 0.923 3.704 0.894 c 1.182 -0.01 2.352 -0.223 3.459 -0.634 c 1.107 -0.417 2.111 -1.07 2.941 -1.917 c 0.751 -0.902 1.395 -1.888 1.917 -2.941 c 0.389 -1.113 0.603 -2.281 0.634 -3.459 c 0.002 -1.274 -0.258 -2.534 -0.763 -3.704 c 0 0 -3.459 -8.949 -9.469 -13.431 C 70.145 14.195 65.714 12.663 61.149 12.659 z" style="stroke: none; stroke-width: 1; stroke-dasharray: none; stroke-linecap: butt; stroke-linejoin: miter; stroke-miterlimit: 10; fill: url(#SVGID_4); fill-rule: nonzero; opacity: 1;" transform=" matrix(1 0 0 1 0 0) " stroke-linecap="round"/>
	<linearGradient id="SVGID_5" gradientUnits="userSpaceOnUse" x1="11.1602" y1="44.8989" x2="90" y2="44.8989">
<stop offset="0%" style="stop-color:rgb(28,62,160);stop-opacity: 1"/>
<stop offset="31.22%" style="stop-color:rgb(47,100,247);stop-opacity: 1"/>
<stop offset="64.97%" style="stop-color:rgb(49,105,255);stop-opacity: 1"/>
<stop offset="98.92999999999999%" style="stop-color:rgb(17,64,139);stop-opacity: 1"/>
</linearGradient>
<path d="M 27.514 12.659 c -0.769 0.039 -1.532 0.125 -2.289 0.26 c -5.828 1.18 -10.913 4.703 -14.065 9.745 c 0.857 0.205 1.675 0.552 2.42 1.023 c 1 0.593 1.87 1.375 2.567 2.307 c 1.056 1.78 1.616 3.809 1.624 5.879 c 0.536 4.441 1.395 8.837 2.567 13.155 c 1.223 -4.742 3.256 -9.236 6.008 -13.284 c 0.321 -0.481 0.757 -0.878 1.266 -1.152 c 0.272 -0.16 0.579 -0.25 0.894 -0.26 c 0.54 -0.01 1.072 0.125 1.544 0.389 c 0.129 0 0.129 0.129 0.26 0.129 c 0.411 0.393 0.79 0.816 1.137 1.266 c 0.679 1.244 1.281 2.53 1.802 3.848 c 1.023 2.809 1.917 6.382 1.917 6.382 l 2.549 10.232 c 0.892 3.535 2.048 6.998 3.459 10.361 c 3.964 9.078 9.972 11.629 9.972 11.629 c 2.968 1.544 6.239 2.414 9.583 2.549 c 3.183 0.151 6.351 -0.509 9.209 -1.917 c 3.136 -1.567 5.903 -3.782 8.121 -6.495 c 1.336 -1.823 2.53 -3.745 3.572 -5.75 c 2.397 -4.721 4.244 -9.702 5.505 -14.844 c 0.876 -3.205 1.559 -6.458 2.046 -9.745 c 0.26 -1.624 0.503 -3.248 0.634 -4.872 c 0.282 -1.524 0.237 -3.091 -0.129 -4.596 c -0.113 -0.26 -0.113 -0.52 -0.245 -0.779 c -0.779 -1.894 -2.176 -3.467 -3.964 -4.467 c -1.285 -0.863 -2.806 -1.309 -4.353 -1.283 c -0.732 0.014 -1.461 0.102 -2.176 0.26 c 1.653 2.412 3.066 4.979 4.222 7.665 c 0.505 1.17 0.765 2.43 0.763 3.704 c -0.031 1.18 -0.245 2.346 -0.634 3.459 c -0.522 1.051 -1.164 2.039 -1.917 2.941 c -0.79 0.892 -1.806 1.553 -2.941 1.917 c -1.107 0.415 -2.277 0.634 -3.459 0.65 c -1.583 0.029 -3.14 -0.419 -4.467 -1.283 l -0.91 3.443 c -0.683 2.647 -1.624 5.22 -2.809 7.681 c -0.634 1.51 -1.399 2.962 -2.289 4.335 c -0.583 0.947 -1.428 1.704 -2.436 2.176 c -0.374 0.108 -0.765 0.151 -1.152 0.129 c -0.415 -0.01 -0.818 -0.147 -1.152 -0.389 c -0.675 -0.565 -1.227 -1.262 -1.624 -2.046 c -0.517 -0.843 -0.982 -1.716 -1.397 -2.614 c -0.763 -1.917 -2.046 -6.642 -2.046 -6.642 l -1.201 -5.052 l -1.283 -4.985 l -0.894 -3.33 c -1.076 -4.572 -2.986 -8.904 -5.637 -12.781 c -2.579 -3.672 -6.241 -6.443 -10.475 -7.926 c -1.665 -0.601 -3.412 -0.947 -5.181 -1.023 C 30.032 12.659 27.514 12.659 27.514 12.659 z" style="stroke: none; stroke-width: 1; stroke-dasharray: none; stroke-linecap: butt; stroke-linejoin: miter; stroke-miterlimit: 10; fill: url(#SVGID_5); fill-rule: nonzero; opacity: 1;" transform=" matrix(1 0 0 1 0 0) " stroke-linecap="round"/>
</g>
</svg>